# xmcd
#
# Track frame offsets: 
#        150
#        12993
#        32577
#        44217
#        56493
#        68882
#        81728
#        94544
#        107056
#        120384
#        136194
#
# Disc length: 2011 seconds
#
# Revision: 0
# Processed by: cddbd v1.5.2PL0 Copyright (c) Steve Scherf et al.
# Submitted via: ExactAudioCopyFreeDBPlugin 1.0
#
DISCID=9307d90b
DTITLE=Ivan i Delfin - Przeboje na Wiosnę
DYEAR=2006
DGENRE=Easy Listening
TTITLE0=Zielony mosteczek
TTITLE1=Ore, ore
TTITLE2=Pojedziemy na łów
TTITLE3=Miała baba koguta
TTITLE4=Lipka
TTITLE5=Hahary
TTITLE6=Gorzałka
TTITLE7=Głęboka studzienka
TTITLE8=Gdybym miał gitarę
TTITLE9=Czerwone jabłuszko
TTITLE10=Bella Mari
EXTD=
EXTT0=
EXTT1=
EXTT2=
EXTT3=
EXTT4=
EXTT5=
EXTT6=
EXTT7=
EXTT8=
EXTT9=
EXTT10=
PLAYORDER=
